<?xml version="1.0" encoding="UTF-8"?>
<svg viewBox="0 0 640 480" xmlns="http://www.w3.org/2000/svg">
 <path d="m235.72 169.84c0.1954 0.002762 0.39656 0.019806 0.5887 0.053848 0.003479 7.17e-4 0.007309-6.87e-4 0.010803 0l19.403 3.2749c1.234 0.20924 2.2685 1.0455 2.7251 2.1976 6.1e-5 0.003586 6.1e-5 0.007172 0 0.010742l9.0039 22.817 87.869 2.1653c1.0106 0.024933 1.9591 0.47601 2.6162 1.2281 0.65695 0.75209 0.97318 1.7522 0.85031 2.747l-4.8508 39.654c-0.20007 1.6637-1.591 2.983-3.2811 3.1133l-62.646 4.9231-12.416 9.6524c-0.01416 0.01123-0.028717 0.021973-0.043579 0.032288-0.013245 0.009125-0.030029 0.012634-0.04364 0.021576-0.01535 0.01001-0.028229 0.022491-0.043579 0.032288-2.2658 1.6714-2.8274 3.9485-2.5071 5.214 0.18246 0.7211 0.46103 1.2509 1.1228 1.659 0.66174 0.40808 1.8049 0.70343 3.7607 0.5925 0.007324-9.2e-5 0.014648-9.2e-5 0.021942 0 0.062836-0.002075 0.13336-0.001373 0.1962 0 0.010437 2.44e-4 0.022339-3.36e-4 0.032776 0l74.712 0.2155h0.010834c1.9634-0.012421 3.6159 1.6151 3.6081 3.555-0.00766 1.9401-1.6666 3.5614-3.6299 3.5335-0.003845-6.1e-5 -0.007355 6.1e-5 -0.010834 0l-5.4612-0.0108c2.0291 1.2783 3.3901 3.5146 3.3901 6.0543 0 3.9501-3.2737 7.1854-7.2706 7.1854-3.9971 0-7.2707-3.2353-7.2707-7.1854 0-2.5535 1.3644-4.8119 3.4118-6.0866l-61.523-0.1724c2.2166 1.235 3.728 3.5796 3.728 6.259 0 3.9501-3.2736 7.1854-7.2707 7.1854-3.997 0-7.2707-3.2353-7.2707-7.1854 0-3.4306 2.466-6.3225 5.7337-7.0238-3.0897-1.0801-5.4631-3.3075-6.9327-6.7114-0.021667-0.041595-0.039917-0.084839-0.054504-0.12927-1.1267-4.4526 0.87161-9.2936 4.9924-12.443 0.010681-0.011047 0.021576-0.02179 0.032776-0.032318 0.010132-0.007629 0.011902-0.024658 0.021667-0.032257 0.036041-0.043213 0.076141-0.082916 0.1199-0.11853l8.7968-6.8191-27.437-69.452-17.408-2.9302c-0.003494-7.02e-4 -0.007355 6.87e-4 -0.010849 0-1.8287-0.29057-3.1661-1.975-3.0085-3.8028 0.15785-1.8313 1.7724-3.2676 3.6299-3.2426h-1.22e-4zm34.38 33.826l5.0579 12.82h6.5948v-12.529l-11.653-0.2909zm14.171 0.3555v12.464h12.176v-12.162l-12.176-0.3016zm14.694 0.3555v12.109h12.176v-11.807l-12.176-0.3016zm14.694 0.3663v11.742h12.176v-11.441l-12.176-0.3016zm14.694 0.3663v11.376h12.176v-11.074l-12.176-0.3016zm14.694 0.3555v11.02h8.9276l1.319-10.762-10.247-0.2585zm8.6224 13.498h-8.6224v11.258h7.2489l1.3735-11.258zm-11.14 0h-12.176v11.258h12.176v-11.258zm-14.694 0h-12.176v11.258h12.176v-11.258zm-14.694 0h-12.176v11.258h12.176v-11.258zm-14.694 0h-12.176v11.258h12.176v-11.258zm-14.694 0h-5.6247l4.4474 11.258h1.1773v-11.258zm68.238 13.735h-6.9436v8.0796l6.0171-0.474 0.9265-7.6056zm-9.4617 0h-12.176v9.2323l12.176-0.9588v-8.2735zm-14.694 0h-12.176v10.385l12.176-0.948v-9.437zm-14.694 0h-12.176v11.548l12.176-0.9588v-10.59zm-14.694 0h-12.176v6.8515l2.3109 5.8496c0.29996-0.14363 0.62698-0.2318 0.95926-0.25856l8.9058-0.7002v-11.742zm-14.694 0h-0.18533l0.1853 0.5063v-0.50632zm61.686 45.655c-2.3758 0-4.273 1.875-4.273 4.223 0 2.3479 1.8972 4.2121 4.273 4.2121 2.3757 0 4.2731-1.8642 4.2731-4.2121 0-2.348-1.8974-4.223-4.2731-4.223zm-68.924 0c-2.3758 0-4.273 1.875-4.273 4.223 0 2.3479 1.8972 4.2121 4.273 4.2121s4.273-1.8642 4.273-4.2121c0-2.348-1.8972-4.223-4.273-4.223zm68.924 2.0038c1.2907 0 2.3218 1.019 2.3218 2.2946s-1.0311 2.2838-2.3218 2.2838-2.3218-1.0082-2.3218-2.2838 1.0311-2.2946 2.3218-2.2946zm-68.924 0c1.2906 0 2.3218 1.019 2.3218 2.2946s-1.0311 2.2838-2.3218 2.2838-2.3218-1.0082-2.3218-2.2838 1.0311-2.2946 2.3218-2.2946z" fill="#f00" stroke-width="15.5"/>
</svg>
